<?xml version="1.0" standalone="no"?>
<!DOCTYPE svg PUBLIC "-//W3C//DTD SVG 20010904//EN"
 "http://www.w3.org/TR/2001/REC-SVG-20010904/DTD/svg10.dtd">
<svg version="1.0" xmlns="http://www.w3.org/2000/svg"
 width="512.000000pt" height="512.000000pt" viewBox="0 0 512.000000 512.000000"
 preserveAspectRatio="xMidYMid meet">
<metadata>
Created by potrace 1.11, written by Peter Selinger 2001-2013
</metadata>
<g transform="translate(0.000000,512.000000) scale(0.100000,-0.100000)"
fill="#000000" stroke="none">
<path d="M3200 5073 c0 -4 12 -68 26 -140 l27 -133 198 0 c128 0 199 4 199 10
0 13 -29 198 -35 226 -5 21 -13 22 -132 28 -71 4 -163 9 -205 12 -43 3 -78 2
-78 -3z"/>
<path d="M2255 4850 c-82 -43 -150 -83 -150 -89 0 -15 214 -271 227 -271 18 0
308 171 308 182 0 11 -220 259 -229 257 -3 -1 -73 -37 -156 -79z"/>
<path d="M4500 4705 c0 -47 0 -88 0 -92 1 -9 246 -143 261 -143 12 0 62 76 57
89 -3 9 -303 231 -313 231 -3 0 -5 -38 -5 -85z"/>
<path d="M3385 4773 c-372 -46 -691 -163 -993 -363 -346 -230 -663 -582 -904
-1005 -82 -143 -264 -498 -353 -686 -320 -676 -513 -1361 -580 -2053 -15 -159
-21 -535 -9 -595 l6 -31 1255 0 c1000 0 1254 3 1250 13 -174 422 -324 963
-386 1392 -35 244 -45 384 -45 620 0 411 51 689 181 995 232 541 722 972 1262
1108 92 23 127 26 261 27 130 0 168 -4 239 -23 152 -41 272 -102 381 -193 l59
-49 56 82 c30 46 55 88 55 95 0 16 -117 116 -245 211 -317 235 -688 395 -1031
447 -90 14 -375 19 -459 8z"/>
<path d="M1260 4013 c-52 -58 -112 -126 -133 -149 l-38 -43 172 -115 c95 -63
176 -113 180 -110 4 2 64 72 134 154 l126 150 -167 110 c-92 60 -169 110 -173
110 -3 0 -49 -48 -101 -107z"/>
<path d="M4450 3985 c0 -71 1 -75 23 -75 12 -1 70 -7 130 -14 l107 -12 0 63
c0 35 -3 63 -6 63 -3 0 -55 11 -116 25 -61 14 -117 25 -124 25 -11 0 -14 -18
-14 -75z"/>
<path d="M3773 3977 c-67 -18 -124 -35 -128 -38 -10 -11 112 -224 127 -223 19
2 178 126 178 139 -1 28 -37 149 -45 151 -6 1 -65 -12 -132 -29z"/>
<path d="M3160 3564 c-52 -46 -96 -89 -98 -94 -5 -14 269 -313 279 -303 13 14
109 184 109 194 0 11 -183 288 -190 289 -3 0 -48 -39 -100 -86z"/>
<path d="M518 2868 c-39 -102 -139 -390 -137 -392 4 -4 428 -137 442 -140 11
-1 139 354 134 369 -4 8 -268 116 -418 170 -9 4 -19 0 -21 -7z"/>
<path d="M2820 2750 c-33 -66 -60 -123 -60 -128 0 -9 320 -286 325 -280 11 12
76 321 69 327 -29 25 -264 201 -268 201 -3 0 -33 -54 -66 -120z"/>
<path d="M2746 1972 c-3 -26 -8 -103 -11 -172 l-6 -125 196 -83 c108 -46 199
-81 202 -78 3 3 1 74 -3 158 l-9 152 -55 31 c-30 17 -112 61 -182 97 l-126 67
-6 -47z"/>
<path d="M47 1273 c-17 -114 -50 -433 -46 -438 3 -3 98 -16 210 -30 112 -13
215 -27 229 -29 l25 -5 42 247 c24 135 40 248 37 251 -5 5 -399 39 -465 40
-23 1 -27 -4 -32 -36z"/>
<path d="M2862 833 c3 -10 25 -89 49 -175 l44 -158 45 -1 c25 0 137 -6 250
-13 113 -7 207 -11 209 -9 2 1 -36 86 -85 188 l-89 185 -214 0 c-198 0 -213
-1 -209 -17z"/>
</g>
</svg>
